<svg width="49" height="49" viewBox="0 0 49 49" fill="none" xmlns="http://www.w3.org/2000/svg">
<path d="M17.5725 30.76H31.5725M17.5725 36.76H24.5725M38.5725 4.76001H10.5725C10.0421 4.76001 9.53337 4.97072 9.1583 5.3458C8.78322 5.72087 8.57251 6.22958 8.57251 6.76001V42.76C8.57251 43.2904 8.78322 43.7992 9.1583 44.1742C9.53337 44.5493 10.0421 44.76 10.5725 44.76H38.5725C39.1029 44.76 39.6117 44.5493 39.9867 44.1742C40.3618 43.7992 40.5725 43.2904 40.5725 42.76V6.76001C40.5725 6.22958 40.3618 5.72087 39.9867 5.3458C39.6117 4.97072 39.1029 4.76001 38.5725 4.76001Z" stroke="black" stroke-width="4" stroke-linecap="round" stroke-linejoin="round"/>
<path d="M30.5725 13.76L22.5725 21.76L18.5725 17.76" stroke="black" stroke-width="4" stroke-linecap="round" stroke-linejoin="round"/>
</svg>