<svg width="50" height="50" viewBox="0 0 50 50" fill="none" xmlns="http://www.w3.org/2000/svg">
<path d="M18.66 29.0267L31.1001 16.5867" stroke="black" stroke-width="4.14667" stroke-linecap="round" stroke-linejoin="round"/>
<path d="M19.6967 18.66C20.2692 18.66 20.7334 18.1959 20.7334 17.6233C20.7334 17.0508 20.2692 16.5867 19.6967 16.5867C19.1242 16.5867 18.66 17.0508 18.66 17.6233C18.66 18.1959 19.1242 18.66 19.6967 18.66Z" fill="black" stroke="black" stroke-width="4.14667" stroke-linecap="round" stroke-linejoin="round"/>
<path d="M30.0634 29.0267C30.6359 29.0267 31.1001 28.5626 31.1001 27.99C31.1001 27.4175 30.6359 26.9534 30.0634 26.9534C29.4909 26.9534 29.0267 27.4175 29.0267 27.99C29.0267 28.5626 29.4909 29.0267 30.0634 29.0267Z" fill="black" stroke="black" stroke-width="4.14667" stroke-linecap="round" stroke-linejoin="round"/>
<path d="M10.3667 43.54V10.3666C10.3667 9.26688 10.8036 8.21216 11.5812 7.4345C12.3589 6.65685 13.4136 6.21997 14.5134 6.21997H35.2467C36.3465 6.21997 37.4012 6.65685 38.1789 7.4345C38.9565 8.21216 39.3934 9.26688 39.3934 10.3666V43.54L33.1734 39.3934L29.0267 43.54L24.8801 39.3934L20.7334 43.54L16.5867 39.3934L10.3667 43.54Z" stroke="black" stroke-width="4.14667" stroke-linecap="round" stroke-linejoin="round"/>
</svg>
