<svg xmlns="http://www.w3.org/2000/svg" width="45" height="45" viewBox="0 0 45 45" fill="none">
<path d="M15.0738 4.02686H30.5912C36.5026 4.02686 41.3056 8.82987 41.3056 14.7413V30.2587C41.3056 33.1003 40.1768 35.8256 38.1674 37.8349C36.1581 39.8443 33.4328 40.9731 30.5912 40.9731H15.0738C9.16239 40.9731 4.35938 36.1701 4.35938 30.2587V14.7413C4.35938 11.8996 5.48821 9.17437 7.49755 7.16503C9.50689 5.15569 12.2321 4.02686 15.0738 4.02686ZM14.7043 7.72148C12.9405 7.72148 11.249 8.42214 10.0018 9.66931C8.75466 10.9165 8.054 12.608 8.054 14.3718V30.6281C8.054 34.3043 11.0282 37.2785 14.7043 37.2785H30.9607C32.7244 37.2785 34.416 36.5778 35.6632 35.3306C36.9103 34.0835 37.611 32.3919 37.611 30.6281V14.3718C37.611 10.6957 34.6368 7.72148 30.9607 7.72148H14.7043ZM32.5309 10.4924C33.1433 10.4924 33.7306 10.7357 34.1637 11.1688C34.5967 11.6018 34.84 12.1892 34.84 12.8016C34.84 13.414 34.5967 14.0013 34.1637 14.4344C33.7306 14.8674 33.1433 15.1107 32.5309 15.1107C31.9185 15.1107 31.3311 14.8674 30.8981 14.4344C30.465 14.0013 30.2217 13.414 30.2217 12.8016C30.2217 12.1892 30.465 11.6018 30.8981 11.1688C31.3311 10.7357 31.9185 10.4924 32.5309 10.4924ZM22.8325 13.2634C25.2822 13.2634 27.6315 14.2365 29.3637 15.9687C31.0959 17.7009 32.0691 20.0503 32.0691 22.5C32.0691 24.9497 31.0959 27.299 29.3637 29.0312C27.6315 30.7634 25.2822 31.7365 22.8325 31.7365C20.3828 31.7365 18.0335 30.7634 16.3013 29.0312C14.5691 27.299 13.5959 24.9497 13.5959 22.5C13.5959 20.0503 14.5691 17.7009 16.3013 15.9687C18.0335 14.2365 20.3828 13.2634 22.8325 13.2634ZM22.8325 16.958C21.3627 16.958 19.9531 17.5419 18.9138 18.5812C17.8744 19.6205 17.2906 21.0302 17.2906 22.5C17.2906 23.9698 17.8744 25.3794 18.9138 26.4187C19.9531 27.458 21.3627 28.0419 22.8325 28.0419C24.3023 28.0419 25.7119 27.458 26.7512 26.4187C27.7905 25.3794 28.3744 23.9698 28.3744 22.5C28.3744 21.0302 27.7905 19.6205 26.7512 18.5812C25.7119 17.5419 24.3023 16.958 22.8325 16.958Z" fill="white"/>
</svg>