<svg width="44" height="44" viewBox="0 0 44 44" fill="none" xmlns="http://www.w3.org/2000/svg">
<path d="M25.8482 12.5099H26.8482V11.5099V7.9266V6.9266H25.8482H18.6815H17.6815V7.9266V11.5099V12.5099H18.6815H25.8482ZM7.93154 14.0933H6.93154V15.0933V34.8016V35.8016H7.93154H36.5982H37.5982V34.8016V15.0933V14.0933H36.5982H7.93154ZM5.36612 15.0942V15.0933C5.36612 13.6502 6.50161 12.5099 7.93154 12.5099H15.0982H16.0982V11.5099V7.9266C16.0982 6.49013 17.2451 5.34326 18.6815 5.34326H25.8482C27.2847 5.34326 28.4315 6.49013 28.4315 7.9266V11.5099V12.5099H29.4315H36.5982C38.0347 12.5099 39.1815 13.6568 39.1815 15.0933V34.8016C39.1815 36.2381 38.0347 37.3849 36.5982 37.3849H7.93154C6.49521 37.3849 5.34843 36.2383 5.34821 34.802C5.34821 34.8019 5.34821 34.8017 5.34821 34.8016L5.36612 15.0942Z" fill="black" stroke="black" stroke-width="2"/>
</svg>
