<svg xmlns="http://www.w3.org/2000/svg" width="34" height="35" viewBox="0 0 34 35" fill="none">
<path d="M29.7635 0.874023C30.7434 0.874023 31.6831 1.26328 32.376 1.95615C33.0689 2.64903 33.4582 3.58877 33.4582 4.56865V30.431C33.4582 31.4109 33.0689 32.3506 32.376 33.0435C31.6831 33.7364 30.7434 34.1256 29.7635 34.1256H3.90117C2.92129 34.1256 1.98155 33.7364 1.28867 33.0435C0.595797 32.3506 0.206543 31.4109 0.206543 30.431V4.56865C0.206543 3.58877 0.595797 2.64903 1.28867 1.95615C1.98155 1.26328 2.92129 0.874023 3.90117 0.874023H29.7635ZM28.8399 29.5074V19.7166C28.8399 18.1194 28.2054 16.5876 27.076 15.4582C25.9466 14.3289 24.4148 13.6944 22.8176 13.6944C21.2474 13.6944 19.4186 14.655 18.5319 16.0959V14.0454H13.3779V29.5074H18.5319V20.4001C18.5319 18.9777 19.6772 17.8139 21.0996 17.8139C21.7856 17.8139 22.4434 18.0864 22.9284 18.5714C23.4134 19.0564 23.6859 19.7142 23.6859 20.4001V29.5074H28.8399ZM7.37411 11.1451C8.19721 11.1451 8.98659 10.8181 9.56861 10.2361C10.1506 9.65407 10.4776 8.86469 10.4776 8.04159C10.4776 6.32359 9.09211 4.91964 7.37411 4.91964C6.54612 4.91964 5.75204 5.24856 5.16656 5.83404C4.58108 6.41952 4.25216 7.2136 4.25216 8.04159C4.25216 9.75959 5.65611 11.1451 7.37411 11.1451ZM9.94188 29.5074V14.0454H4.82482V29.5074H9.94188Z" fill="white"/>
</svg>