<svg width="36" height="32" viewBox="0 0 36 32" fill="none" xmlns="http://www.w3.org/2000/svg">
<path d="M0.0332642 29.5117V2.97007C0.0332642 2.22145 0.339514 1.65115 0.952014 1.25915C1.56451 0.867149 2.21104 0.80794 2.8916 1.08152L34.3333 14.3524C35.184 14.7267 35.6093 15.3562 35.6093 16.2409C35.6093 17.1256 35.184 17.7551 34.3333 18.1294L2.8916 31.4003C2.21104 31.6725 1.56451 31.6126 0.952014 31.2206C0.339514 30.8286 0.0332642 30.259 0.0332642 29.5117ZM4.1166 26.4492L28.3103 16.2409L4.1166 6.03257V13.1784L16.3666 16.2409L4.1166 19.3034V26.4492ZM4.1166 16.2409V6.03257V26.4492V16.2409Z" fill="white"/>
</svg>
